<svg xmlns="http://www.w3.org/2000/svg" version="1.1" xmlns:xlink="http://www.w3.org/1999/xlink" xmlns:svgjs="http://svgjs.com/svgjs" width="1440" height="560" preserveAspectRatio="none" viewBox="0 0 1440 560"><g mask="url(&quot;#SvgjsMask1001&quot;)" fill="none"><path d="M680.29 594.62C846.81 554.6 910.45 109.94 1161.38 106.93 1412.31 103.92 1512.13 304.51 1642.47 308.53" stroke="rgba(51,121,194,0.58)" stroke-width="2"></path><path d="M285.3 597.84C503.78 571.14 634.96 79.34 996.08 78.32 1357.2 77.3 1517.42 337.34 1706.86 341.52" stroke="rgba(51,121,194,0.58)" stroke-width="2"></path><path d="M602.05 584.3C724.64 535.82 675.7 161.9 916.36 160.9 1157.02 159.9 1377.71 386.94 1544.98 390.5" stroke="rgba(51,121,194,0.58)" stroke-width="2"></path><path d="M689.74 605.9C780.17 587.78 719.17 378.39 960.8 355.66 1202.43 332.93 1350.6 83.77 1502.92 75.66" stroke="rgba(51,121,194,0.58)" stroke-width="2"></path><path d="M547.1 651.98C666.18 650.83 761.15 531.16 1006.37 525.54 1251.59 519.92 1338.62 312.61 1465.64 307.14" stroke="rgba(51,121,194,0.58)" stroke-width="2"></path></g><defs><mask id="SvgjsMask1001"><rect width="1440" height="560" fill="#ffffff"></rect></mask></defs></svg>