<svg xmlns="http://www.w3.org/2000/svg" version="1.1" xmlns:xlink="http://www.w3.org/1999/xlink" xmlns:svgjs="http://svgjs.com/svgjs" width="1440" height="560" preserveAspectRatio="none" viewBox="0 0 1440 560"><g mask="url(&quot;#SvgjsMask1370&quot;)" fill="none"><rect width="1440" height="560" x="0" y="0" fill="url(#SvgjsLinearGradient1371)"></rect><path d="M1440 0L965.21 0L1440 118.59z" fill="rgba(255, 255, 255, .1)"></path><path d="M965.21 0L1440 118.59L1440 339.93L870.12 0z" fill="rgba(255, 255, 255, .075)"></path><path d="M870.12 0L1440 339.93L1440 412.56L418.47 0z" fill="rgba(255, 255, 255, .05)"></path><path d="M418.47 0L1440 412.56L1440 422.89L155.5 0z" fill="rgba(255, 255, 255, .025)"></path><path d="M0 560L459.75 560L0 399.64z" fill="rgba(0, 0, 0, .1)"></path><path d="M0 399.64L459.75 560L631.28 560L0 236.42z" fill="rgba(0, 0, 0, .075)"></path><path d="M0 236.41999999999996L631.28 560L899.16 560L0 159.44999999999996z" fill="rgba(0, 0, 0, .05)"></path><path d="M0 159.44999999999993L899.16 560L1208.22 560L0 130.96999999999994z" fill="rgba(0, 0, 0, .025)"></path></g><defs><mask id="SvgjsMask1370"><rect width="1440" height="560" fill="#ffffff"></rect></mask><linearGradient x1="84.72%" y1="-39.29%" x2="15.28%" y2="139.29%" gradientUnits="userSpaceOnUse" id="SvgjsLinearGradient1371"><stop stop-color="#0e2a47" offset="0"></stop><stop stop-color="rgba(75, 155, 223, 1)" offset="1"></stop></linearGradient></defs></svg>