<svg id="visual" viewBox="0 0 900 450" width="900" height="450" xmlns="http://www.w3.org/2000/svg" xmlns:xlink="http://www.w3.org/1999/xlink" version="1.1"><rect x="0" y="0" width="900" height="450" fill="#052035"></rect><path d="M0 292L21.5 290.3C43 288.7 86 285.3 128.8 284C171.7 282.7 214.3 283.3 257.2 291C300 298.7 343 313.3 385.8 321.3C428.7 329.3 471.3 330.7 514.2 329.2C557 327.7 600 323.3 642.8 321.7C685.7 320 728.3 321 771.2 316.7C814 312.3 857 302.7 878.5 297.8L900 293L900 451L878.5 451C857 451 814 451 771.2 451C728.3 451 685.7 451 642.8 451C600 451 557 451 514.2 451C471.3 451 428.7 451 385.8 451C343 451 300 451 257.2 451C214.3 451 171.7 451 128.8 451C86 451 43 451 21.5 451L0 451Z" fill="#0066ff"></path><path d="M0 353L21.5 345C43 337 86 321 128.8 315.3C171.7 309.7 214.3 314.3 257.2 318.3C300 322.3 343 325.7 385.8 323C428.7 320.3 471.3 311.7 514.2 315.2C557 318.7 600 334.3 642.8 333.5C685.7 332.7 728.3 315.3 771.2 316.2C814 317 857 336 878.5 345.5L900 355L900 451L878.5 451C857 451 814 451 771.2 451C728.3 451 685.7 451 642.8 451C600 451 557 451 514.2 451C471.3 451 428.7 451 385.8 451C343 451 300 451 257.2 451C214.3 451 171.7 451 128.8 451C86 451 43 451 21.5 451L0 451Z" fill="#0086ff"></path><path d="M0 365L21.5 364.5C43 364 86 363 128.8 364C171.7 365 214.3 368 257.2 370.2C300 372.3 343 373.7 385.8 368C428.7 362.3 471.3 349.7 514.2 344.7C557 339.7 600 342.3 642.8 341.2C685.7 340 728.3 335 771.2 340.2C814 345.3 857 360.7 878.5 368.3L900 376L900 451L878.5 451C857 451 814 451 771.2 451C728.3 451 685.7 451 642.8 451C600 451 557 451 514.2 451C471.3 451 428.7 451 385.8 451C343 451 300 451 257.2 451C214.3 451 171.7 451 128.8 451C86 451 43 451 21.5 451L0 451Z" fill="#42a2ff"></path><path d="M0 385L21.5 381.8C43 378.7 86 372.3 128.8 370.7C171.7 369 214.3 372 257.2 372.7C300 373.3 343 371.7 385.8 374.3C428.7 377 471.3 384 514.2 384.7C557 385.3 600 379.7 642.8 375.3C685.7 371 728.3 368 771.2 366.2C814 364.3 857 363.7 878.5 363.3L900 363L900 451L878.5 451C857 451 814 451 771.2 451C728.3 451 685.7 451 642.8 451C600 451 557 451 514.2 451C471.3 451 428.7 451 385.8 451C343 451 300 451 257.2 451C214.3 451 171.7 451 128.8 451C86 451 43 451 21.5 451L0 451Z" fill="#75bcfd"></path><path d="M0 405L21.5 404.8C43 404.7 86 404.3 128.8 403C171.7 401.7 214.3 399.3 257.2 398.5C300 397.7 343 398.3 385.8 401.2C428.7 404 471.3 409 514.2 412.7C557 416.3 600 418.7 642.8 416.8C685.7 415 728.3 409 771.2 404.8C814 400.7 857 398.3 878.5 397.2L900 396L900 451L878.5 451C857 451 814 451 771.2 451C728.3 451 685.7 451 642.8 451C600 451 557 451 514.2 451C471.3 451 428.7 451 385.8 451C343 451 300 451 257.2 451C214.3 451 171.7 451 128.8 451C86 451 43 451 21.5 451L0 451Z" fill="#a6d4fa"></path></svg>